<svg xmlns="http://www.w3.org/2000/svg" width="168" height="27.15" viewBox="0 0 168 27.15"><defs><style>.cls-1{fill:#fff;}.cls-2{fill:#efb207;}</style></defs><g id="Layer_2" data-name="Layer 2"><g id="Layer_1-2" data-name="Layer 1"><path class="cls-1" d="M162.91,0V18.67a3.39,3.39,0,0,1-3.39,3.39h-1.7v5.09h1.7a8.37,8.37,0,0,0,3.39-.71A8.46,8.46,0,0,0,168,18.67V0Z"/><rect class="cls-1" x="115.39" width="5.09" height="20.36"/><path class="cls-1" d="M161.21,15.27V6.79h-5.09v8.48h-3.39a3.11,3.11,0,0,1-.69-.07l-.16,0-.15-.05-.17,0-.15-.07h0l-.14-.06-.12-.06c-.13-.07-.25-.15-.37-.23l-.12-.09h0l-.16-.14h0l-.16-.15-.14-.15,0,0-.13-.16-.12-.16,0,0-.09-.15a.67.67,0,0,1-.06-.12,2.92,2.92,0,0,1-.17-.36,1,1,0,0,0,0-.1c0-.13-.08-.27-.11-.4a.69.69,0,0,1,0-.13,2,2,0,0,1,0-.24c0-.12,0-.23,0-.35V6.79h-5.09v5.09c0,.12,0,.23,0,.35s0,.16,0,.24,0,.08,0,.13a3,3,0,0,1-.12.4l0,.1c-.05.12-.11.24-.17.36l-.06.12-.1.15,0,0a1.67,1.67,0,0,1-.12.16,1.83,1.83,0,0,1-.13.16l0,0-.13.15-.16.15h0l-.16.14h0l-.13.09a3.17,3.17,0,0,1-.36.23l-.12.06-.14.06h0l-.15.07-.18,0-.14.05-.17,0a3.08,3.08,0,0,1-.68.07h-1.7V1.7h-3.39a13.52,13.52,0,0,0-13.58,13.57v5.09h18.67a8.49,8.49,0,0,0,3.39-.7l.28-.13.19-.1.22-.11.18-.11a6.58,6.58,0,0,0,.87-.58l.13-.1.17-.14.16-.13.13-.11.22-.22.22.22.13.11.15.13.17.14.13.1a8.22,8.22,0,0,0,.87.58l.19.11.21.11.2.1.27.13a8.54,8.54,0,0,0,3.4.7h8.48Zm-33.94,0A8.49,8.49,0,0,1,134.06,7v8.31Z"/><path class="cls-1" d="M108.61,15.27h-1.7a3.11,3.11,0,0,1-.69-.07l-.16,0-.15-.05-.17,0-.15-.07h0l-.14-.06-.12-.06c-.13-.07-.25-.15-.37-.23l-.12-.09h0l-.17-.14h0l-.16-.15-.14-.15,0,0-.13-.16-.11-.16,0,0-.1-.15-.06-.12c-.06-.12-.12-.24-.17-.36a.3.3,0,0,0,0-.1c0-.13-.08-.27-.11-.4a.69.69,0,0,1,0-.13,2,2,0,0,1,0-.24c0-.12,0-.23,0-.35V6.79h-5.1v5.09c0,.12,0,.23,0,.35a2,2,0,0,1,0,.24.69.69,0,0,1,0,.13c0,.13-.07.27-.11.4a.3.3,0,0,0,0,.1c0,.12-.11.24-.17.36l-.06.12-.1.15,0,0a.83.83,0,0,1-.12.16.91.91,0,0,1-.13.16v0l-.14.15-.16.15h0l-.17.14h0l-.12.09c-.12.08-.24.16-.37.23l-.12.06-.14.06h0l-.15.07-.17,0-.15.05-.16,0a3.11,3.11,0,0,1-.69.07h-1.7V6.79H88.24V18.67a3.39,3.39,0,0,1-3.39,3.39h-1.7a3.39,3.39,0,0,1-3.39-3.39V6.79H74.67V18.67a8.46,8.46,0,0,0,5.09,7.77,8.33,8.33,0,0,0,3.39.71h1.7a8.33,8.33,0,0,0,3.39-.71,8.46,8.46,0,0,0,4.92-6.08H95a8.49,8.49,0,0,0,3.39-.7l.28-.13.19-.1.22-.11.19-.11a8.22,8.22,0,0,0,.87-.58l.13-.1.16-.14.16-.13.13-.11.22-.22.22.22.13.11.16.13.16.14.13.1a8.22,8.22,0,0,0,.87.58l.19.11.22.11.19.1.28.13a8.49,8.49,0,0,0,3.39.7h6.79V6.79h-5.09Z"/><path class="cls-1" d="M17.68,11.88A8.37,8.37,0,0,0,17,15.27h0v5.09H30.55V6.79h-5.1A8.48,8.48,0,0,0,17.68,11.88Zm7.77,3.39H22.06a3.39,3.39,0,0,1,3.39-3.39Z"/><path class="cls-1" d="M61.09,1.8a13.62,13.62,0,0,0-1.7-.1V6.79a8.67,8.67,0,0,1,1.7.17l.18,0,.1,0,.14,0,.21.05.16,0,.23.07.15,0,.44.18.19.08a8.62,8.62,0,0,1,1.5.87l.13.11a6.7,6.7,0,0,1,.81.69l.13.13.12.13.24.26c.16.19.31.37.44.56l.1.14a6.75,6.75,0,0,1,.56.93,1.09,1.09,0,0,1,.08.15c0,.09.09.18.13.27l.08.18c.06.14.11.28.17.43s.07.2.1.31a2.76,2.76,0,0,1,.08.27,1.21,1.21,0,0,1,0,.18c0,.1,0,.2.07.3l0,.14c.05.24.09.49.12.73,0,.06,0,.12,0,.18l0,.34a.92.92,0,0,0,0,.16v.27H59.39a3.08,3.08,0,0,1-.68-.07l-.16,0-.15-.05-.18,0L58.07,15h0l-.15-.06-.12-.06a3.17,3.17,0,0,1-.36-.23l-.13-.09h0l-.16-.14h0L57,14.27l-.14-.15,0,0a1.83,1.83,0,0,1-.13-.16l-.12-.16,0,0a.6.6,0,0,1-.09-.15.75.75,0,0,1-.07-.12c-.06-.12-.11-.24-.16-.36l0-.1a3,3,0,0,1-.11-.4l0-.13,0-.24c0-.12,0-.23,0-.35V8.48H50.91v3.4c0,.12,0,.23,0,.35l0,.24,0,.13a3,3,0,0,1-.11.4.69.69,0,0,1,0,.1c0,.12-.1.24-.16.36a.75.75,0,0,1-.07.12l-.09.15,0,0-.12.16a1.83,1.83,0,0,1-.13.16l0,0-.14.15-.15.15h0l-.16.14h0l-.12.09-.36.23-.12.06-.15.06h0l-.15.07-.18,0-.15.05-.16,0a3.08,3.08,0,0,1-.68.07h-1.7a8.37,8.37,0,0,0-.71-3.39,8.48,8.48,0,0,0-7.78-5.09H32.24v5.09h5.09a3.4,3.4,0,0,1,3.4,3.39H32.24v5.09H47.52a8.53,8.53,0,0,0,3.39-.7l.28-.13.19-.1.21-.11a1.18,1.18,0,0,0,.19-.11,8.22,8.22,0,0,0,.87-.58l.13-.1.17-.14.15-.13.13-.11c.08-.07.15-.15.22-.22l.23.22.13.11.15.13.17.14.13.1a7.31,7.31,0,0,0,.87.58,1.18,1.18,0,0,0,.19.11l.21.11.19.1.28.13a8.53,8.53,0,0,0,3.39.7H73V15.27A13.58,13.58,0,0,0,61.09,1.8Z"/><rect class="cls-1" x="139.15" y="22.06" width="5.09" height="5.09" rx="0.86"/><rect class="cls-1" x="149.33" width="5.09" height="5.09" rx="0.86"/><rect class="cls-1" x="156.12" width="5.09" height="5.09" rx="0.86"/><rect class="cls-1" x="98.42" width="5.09" height="5.09" rx="0.86"/><rect class="cls-1" x="105.21" width="5.09" height="5.09" rx="0.86"/><rect class="cls-1" x="91.64" width="5.09" height="5.09" rx="0.86"/><rect class="cls-1" x="50.91" y="1.7" width="5.09" height="5.09" rx="0.86"/><rect class="cls-1" x="61.09" y="22.06" width="5.09" height="5.09" rx="0.86"/><rect class="cls-1" x="67.88" y="22.06" width="5.09" height="5.09" rx="0.86"/><rect class="cls-1" x="54.3" y="22.06" width="5.09" height="5.09" rx="0.86"/><rect class="cls-2" x="10.18" y="22.06" width="5.09" height="5.09" rx="0.86"/><path class="cls-2" d="M10.18,6.78h5.09V4.58A4.58,4.58,0,0,0,10.69,0H4.6A4.6,4.6,0,0,0,0,4.6v7a4.6,4.6,0,0,0,4.6,4.6h5.58v4.18h5.09V15.87a4,4,0,0,0-4-4H9.66a.48.48,0,0,1-.21-.09L7.86,10.59a.49.49,0,0,0-.59,0L5.69,11.78a.5.5,0,0,1-.77-.56l.64-1.87a.48.48,0,0,0-.18-.56L5.3,8.73l-.21-.15L3.76,7.65a.5.5,0,0,1,.29-.9h1l.94,0a.48.48,0,0,0,.29-.1.47.47,0,0,0,.19-.25L7.1,4.54a.49.49,0,0,1,.94,0l.58,1.89a.51.51,0,0,0,.49.35h1.07Z"/></g></g></svg>